<svg class="external-icon" focusable="false"
  style="pointer-events: none; display: block; width: 100%; height: 100%;" viewBox="0 0 1358 950"
  xmlns="http://www.w3.org/2000/svg">
  <svg viewBox="0 0 28.57 20" preserveAspectRatio="xMidYMid meet" xmlns="http://www.w3.org/2000/svg">
    <g>
      <path
        d="M27.9727 3.12324C27.6435 1.89323 26.6768 0.926623 25.4468 0.597366C23.2197 2.24288e-07 14.285 0 14.285 0C14.285 0 5.35042 2.24288e-07 3.12323 0.597366C1.89323 0.926623 0.926623 1.89323 0.597366 3.12324C2.24288e-07 5.35042 0 10 0 10C0 10 2.24288e-07 14.6496 0.597366 16.8768C0.926623 18.1068 1.89323 19.0734 3.12323 19.4026C5.35042 20 14.285 20 14.285 20C14.285 20 23.2197 20 25.4468 19.4026C26.6768 19.0734 27.6435 18.1068 27.9727 16.8768C28.5701 14.6496 28.5701 10 28.5701 10C28.5701 10 28.5677 5.35042 27.9727 3.12324Z"
        fill="#FF0000"></path>
      <g transform="matrix(0.001522, 0, 0, -0.001522, 4.462436, 20.203405)" fill="#ffffff"
        stroke="none" style="">
        <path
          d="M6410 12584 c-731 -37 -1322 -197 -1855 -504 -487 -279 -924 -695
-1237 -1175 -354 -542 -559 -1193 -593 -1885 -4 -69 -8 -159 -10 -200 -6 -108
13 -485 31 -625 61 -477 194 -878 401 -1212 125 -201 349 -453 530 -596 223
-176 505 -337 808 -460 216 -88 851 -291 1370 -438 157 -45 481 -154 640 -216
143 -56 383 -176 475 -238 47 -31 118 -89 158 -129 149 -145 197 -254 195
-442 -2 -276 -115 -473 -359 -629 -196 -126 -421 -190 -705 -202 -610 -25
-1259 212 -1919 701 -145 107 -278 218 -499 414 -63 56 -119 102 -124 102 -5
0 -24 -9 -42 -20 -24 -15 -51 -56 -112 -172 -45 -84 -117 -220 -161 -303 -162
-306 -258 -487 -392 -740 -75 -143 -176 -332 -222 -420 -194 -364 -254 -476
-311 -585 -33 -63 -70 -133 -82 -155 -12 -22 -51 -94 -85 -159 l-63 -120 34
-28 c50 -42 415 -284 559 -370 601 -361 1209 -615 1849 -773 564 -139 1067
-193 1686 -182 549 10 999 74 1465 208 751 217 1333 541 1790 999 568 567 887
1278 1000 2230 47 399 39 913 -20 1255 -113 652 -412 1187 -895 1601 -241 207
-493 369 -840 539 -325 160 -609 267 -1085 410 -406 121 -476 143 -700 217
-546 180 -698 255 -877 433 -75 74 -99 107 -130 171 -35 73 -38 85 -37 165 2
147 56 269 171 381 124 121 286 207 503 266 89 24 110 26 325 26 176 0 252 -3
325 -17 292 -53 520 -130 776 -263 219 -113 375 -217 673 -448 90 -69 96 -70
137 -24 12 12 72 122 134 243 62 121 185 360 273 530 152 296 281 545 667
1295 94 184 197 381 227 438 52 98 54 104 36 117 -25 19 -518 264 -628 313
-670 297 -1286 484 -1925 585 -144 23 -196 30 -420 57 -204 24 -721 43 -910
34z"></path>
      </g>
    </g>
  </svg>
</svg>
